{
  "accessors": [
    {
      "bufferView": 2,
      "componentType": 5126,
      "count": 702,
      "max": [
        0.16552510857582092,
        0.02287730574607849,
        0.0010000000474974513
      ],
      "min": [
        0.15357357263565063,
        0.017964422702789307,
        -0.0010000000474974513
      ],
      "type": "VEC3"
    },
    {
      "bufferView": 2,
      "byteOffset": 8424,
      "componentType": 5126,
      "count": 702,
      "max": [
        0.9998818039894104,
        0.9999988675117493,
        1.0
      ],
      "min": [
        -0.9266939163208008,
        -0.9999997615814209,
        -1.0
      ],
      "type": "VEC3"
    },
    {
      "bufferView": 1,
      "componentType": 5126,
      "count": 702,
      "max": [
        1.0,
        1.0
      ],
      "min": [
        0.0,
        0.0
      ],
      "type": "VEC2"
    },
    {
      "bufferView": 0,
      "componentType": 5125,
      "count": 1284,
      "type": "SCALAR"
    },
    {
      "bufferView": 2,
      "byteOffset": 16848,
      "componentType": 5126,
      "count": 704,
      "max": [
        0.15186220407485962,
        0.024794191122055054,
        0.0010000000474974513
      ],
      "min": [
        0.13932055234909058,
        0.019677013158798218,
        -0.0010000000474974513
      ],
      "type": "VEC3"
    },
    {
      "bufferView": 2,
      "byteOffset": 25296,
      "componentType": 5126,
      "count": 704,
      "max": [
        0.9977791905403137,
        0.99989914894104,
        1.0
      ],
      "min": [
        -0.8868668675422668,
        -0.9999650120735168,
        -1.0
      ],
      "type": "VEC3"
    },
    {
      "bufferView": 1,
      "byteOffset": 5616,
      "componentType": 5126,
      "count": 704,
      "max": [
        1.0,
        1.0
      ],
      "min": [
        0.0,
        0.0
      ],
      "type": "VEC2"
    },
    {
      "bufferView": 0,
      "byteOffset": 5136,
      "componentType": 5125,
      "count": 1284,
      "type": "SCALAR"
    },
    {
      "bufferView": 2,
      "byteOffset": 33744,
      "componentType": 5126,
      "count": 962,
      "max": [
        2.7757301330566406,
        0.9143189787864685,
        0.012643788941204548
      ],
      "min": [
        1.2466974258422852,
        0.31375816464424133,
        -0.012643788941204548
      ],
      "type": "VEC3"
    },
    {
      "bufferView": 2,
      "byteOffset": 45288,
      "componentType": 5126,
      "count": 962,
      "max": [
        0.9997906684875488,
        1.0,
        1.0
      ],
      "min": [
        -0.9998473525047302,
        -1.0,
        -1.0
      ],
      "type": "VEC3"
    },
    {
      "bufferView": 1,
      "byteOffset": 11248,
      "componentType": 5126,
      "count": 962,
      "max": [
        1.0,
        1.0
      ],
      "min": [
        0.0,
        0.0
      ],
      "type": "VEC2"
    },
    {
      "bufferView": 0,
      "byteOffset": 10272,
      "componentType": 5125,
      "count": 1716,
      "type": "SCALAR"
    },
    {
      "bufferView": 2,
      "byteOffset": 56832,
      "componentType": 5126,
      "count": 1346,
      "max": [
        0.1995801329612732,
        0.12626603245735168,
        0.0020000000949949026
      ],
      "min": [
        0.12068747729063034,
        0.02889329195022583,
        -0.0020000000949949026
      ],
      "type": "VEC3"
    },
    {
      "bufferView": 2,
      "byteOffset": 72984,
      "componentType": 5126,
      "count": 1346,
      "max": [
        0.9998278021812439,
        1.0,
        1.0
      ],
      "min": [
        -0.9997966885566711,
        -1.0,
        -1.0
      ],
      "type": "VEC3"
    },
    {
      "bufferView": 1,
      "byteOffset": 18944,
      "componentType": 5126,
      "count": 1346,
      "max": [
        1.0,
        1.0
      ],
      "min": [
        0.0,
        0.0
      ],
      "type": "VEC2"
    },
    {
      "bufferView": 0,
      "byteOffset": 17136,
      "componentType": 5125,
      "count": 2508,
      "type": "SCALAR"
    },
    {
      "bufferView": 2,
      "byteOffset": 89136,
      "componentType": 5126,
      "count": 6668,
      "max": [
        0.17814305424690247,
        0.10376408696174622,
        0.003000000026077032
      ],
      "min": [
        0.13744524121284485,
        0.049451857805252075,
        -0.003000000026077032
      ],
      "type": "VEC3"
    },
    {
      "bufferView": 2,
      "byteOffset": 169152,
      "componentType": 5126,
      "count": 6668,
      "max": [
        1.0,
        1.0,
        1.0
      ],
      "min": [
        -1.0,
        -1.0,
        -1.0
      ],
      "type": "VEC3"
    },
    {
      "bufferView": 1,
      "byteOffset": 29712,
      "componentType": 5126,
      "count": 6668,
      "max": [
        1.0,
        1.0
      ],
      "min": [
        0.0,
        0.0
      ],
      "type": "VEC2"
    },
    {
      "bufferView": 0,
      "byteOffset": 27168,
      "componentType": 5125,
      "count": 13212,
      "type": "SCALAR"
    },
    {
      "bufferView": 2,
      "byteOffset": 249168,
      "componentType": 5126,
      "count": 58,
      "max": [
        0.18537381291389465,
        0.12414069473743439,
        0.003000000026077032
      ],
      "min": [
        0.13306152820587158,
        0.10453381389379501,
        -0.003000000026077032
      ],
      "type": "VEC3"
    },
    {
      "bufferView": 2,
      "byteOffset": 249864,
      "componentType": 5126,
      "count": 58,
      "max": [
        0.7071068286895752,
        0.7071068286895752,
        1.0
      ],
      "min": [
        -0.7071068286895752,
        -0.7071068286895752,
        -1.0
      ],
      "type": "VEC3"
    },
    {
      "bufferView": 1,
      "byteOffset": 83056,
      "componentType": 5126,
      "count": 58,
      "max": [
        1.0,
        1.0
      ],
      "min": [
        0.0,
        0.0
      ],
      "type": "VEC2"
    },
    {
      "bufferView": 0,
      "byteOffset": 80016,
      "componentType": 5125,
      "count": 120,
      "type": "SCALAR"
    },
    {
      "bufferView": 2,
      "byteOffset": 250560,
      "componentType": 5126,
      "count": 180,
      "max": [
        0.17506450414657593,
        0.12268061935901642,
        0.004000000189989805
      ],
      "min": [
        0.13999056816101074,
        0.11049807816743851,
        -0.004000000189989805
      ],
      "type": "VEC3"
    },
    {
      "bufferView": 2,
      "byteOffset": 252720,
      "componentType": 5126,
      "count": 180,
      "max": [
        0.985195517539978,
        0.9999977350234985,
        1.0
      ],
      "min": [
        -0.958850085735321,
        -0.8810611367225647,
        -1.0
      ],
      "type": "VEC3"
    },
    {
      "bufferView": 1,
      "byteOffset": 83520,
      "componentType": 5126,
      "count": 180,
      "max": [
        1.0,
        1.0
      ],
      "min": [
        0.0,
        0.0
      ],
      "type": "VEC2"
    },
    {
      "bufferView": 0,
      "byteOffset": 80496,
      "componentType": 5125,
      "count": 444,
      "type": "SCALAR"
    },
    {
      "bufferView": 2,
      "byteOffset": 254880,
      "componentType": 5126,
      "count": 770,
      "max": [
        0.15172544121742249,
        0.16442328691482544,
        0.0010000000474974513
      ],
      "min": [
        0.13664206862449646,
        0.15719303488731384,
        -0.0010000000474974513
      ],
      "type": "VEC3"
    },
    {
      "bufferView": 2,
      "byteOffset": 264120,
      "componentType": 5126,
      "count": 770,
      "max": [
        0.9977017045021057,
        0.9999911785125732,
        1.0
      ],
      "min": [
        -0.9994732737541199,
        -0.9999668598175049,
        -1.0
      ],
      "type": "VEC3"
    },
    {
      "bufferView": 1,
      "byteOffset": 84960,
      "componentType": 5126,
      "count": 770,
      "max": [
        1.0,
        1.0
      ],
      "min": [
        0.0,
        0.0
      ],
      "type": "VEC2"
    },
    {
      "bufferView": 0,
      "byteOffset": 82272,
      "componentType": 5125,
      "count": 1428,
      "type": "SCALAR"
    },
    {
      "bufferView": 2,
      "byteOffset": 273360,
      "componentType": 5126,
      "count": 922,
      "max": [
        0.22553786635398865,
        0.15863417088985443,
        0.0010000000474974513
      ],
      "min": [
        0.09285085648298264,
        0.10044457018375397,
        -0.0010000000474974513
      ],
      "type": "VEC3"
    },
    {
      "bufferView": 2,
      "byteOffset": 284424,
      "componentType": 5126,
      "count": 922,
      "max": [
        1.0,
        1.0,
        1.0
      ],
      "min": [
        -0.9977244138717651,
        -1.0,
        -1.0
      ],
      "type": "VEC3"
    },
    {
      "bufferView": 1,
      "byteOffset": 91120,
      "componentType": 5126,
      "count": 922,
      "max": [
        1.0,
        1.0
      ],
      "min": [
        0.0,
        0.0
      ],
      "type": "VEC2"
    },
    {
      "bufferView": 0,
      "byteOffset": 87984,
      "componentType": 5125,
      "count": 1740,
      "type": "SCALAR"
    },
    {
      "bufferView": 2,
      "byteOffset": 295488,
      "componentType": 5126,
      "count": 3152,
      "max": [
        0.21627627313137054,
        0.15391643345355988,
        0.0020000000949949026
      ],
      "min": [
        0.1013534888625145,
        0.10782373696565628,
        -0.0020000000949949026
      ],
      "type": "VEC3"
    },
    {
      "bufferView": 2,
      "byteOffset": 333312,
      "componentType": 5126,
      "count": 3152,
      "max": [
        1.0,
        0.9999575614929199,
        1.0
      ],
      "min": [
        -0.999815046787262,
        -1.0,
        -1.0
      ],
      "type": "VEC3"
    },
    {
      "bufferView": 1,
      "byteOffset": 98496,
      "componentType": 5126,
      "count": 3152,
      "max": [
        1.0,
        1.0
      ],
      "min": [
        0.0,
        0.0
      ],
      "type": "VEC2"
    },
    {
      "bufferView": 0,
      "byteOffset": 94944,
      "componentType": 5125,
      "count": 5754,
      "type": "SCALAR"
    },
    {
      "bufferView": 2,
      "byteOffset": 371136,
      "componentType": 5126,
      "count": 482,
      "max": [
        0.104688361287117,
        0.1387675702571869,
        0.0010000000474974513
      ],
      "min": [
        0.09595092386007309,
        0.12191088497638702,
        -0.0010000000474974513
      ],
      "type": "VEC3"
    },
    {
      "bufferView": 2,
      "byteOffset": 376920,
      "componentType": 5126,
      "count": 482,
      "max": [
        1.0,
        0.9974571466445923,
        1.0
      ],
      "min": [
        -0.9999364018440247,
        -0.9294334053993225,
        -1.0
      ],
      "type": "VEC3"
    },
    {
      "bufferView": 1,
      "byteOffset": 123712,
      "componentType": 5126,
      "count": 482,
      "max": [
        1.0,
        1.0
      ],
      "min": [
        0.0,
        0.0
      ],
      "type": "VEC2"
    },
    {
      "bufferView": 0,
      "byteOffset": 117960,
      "componentType": 5125,
      "count": 1008,
      "type": "SCALAR"
    },
    {
      "bufferView": 2,
      "byteOffset": 382704,
      "componentType": 5126,
      "count": 506,
      "max": [
        0.10123362392187119,
        0.13604514300823212,
        0.0010000000474974513
      ],
      "min": [
        0.09096350520849228,
        0.12457937002182007,
        -0.0010000000474974513
      ],
      "type": "VEC3"
    },
    {
      "bufferView": 2,
      "byteOffset": 388776,
      "componentType": 5126,
      "count": 506,
      "max": [
        0.9766343832015991,
        0.9618158936500549,
        1.0
      ],
      "min": [
        -0.9999150037765503,
        -0.9999977946281433,
        -1.0
      ],
      "type": "VEC3"
    },
    {
      "bufferView": 1,
      "byteOffset": 127568,
      "componentType": 5126,
      "count": 506,
      "max": [
        1.0,
        1.0
      ],
      "min": [
        0.0,
        0.0
      ],
      "type": "VEC2"
    },
    {
      "bufferView": 0,
      "byteOffset": 121992,
      "componentType": 5125,
      "count": 996,
      "type": "SCALAR"
    },
    {
      "bufferView": 2,
      "byteOffset": 394848,
      "componentType": 5126,
      "count": 84,
      "max": [
        0.15906476974487305,
        0.07231369614601135,
        0.0
      ],
      "min": [
        0.0986015573143959,
        0.02481520175933838,
        0.0
      ],
      "type": "VEC3"
    },
    {
      "bufferView": 2,
      "byteOffset": 395856,
      "componentType": 5126,
      "count": 84,
      "max": [
        0.0,
        0.0,
        1.0
      ],
      "min": [
        0.0,
        0.0,
        1.0
      ],
      "type": "VEC3"
    },
    {
      "bufferView": 1,
      "byteOffset": 131616,
      "componentType": 5126,
      "count": 84,
      "max": [
        1.0,
        0.0
      ],
      "min": [
        0.0,
        0.0
      ],
      "type": "VEC2"
    },
    {
      "bufferView": 0,
      "byteOffset": 125976,
      "componentType": 5125,
      "count": 246,
      "type": "SCALAR"
    },
    {
      "bufferView": 2,
      "byteOffset": 396864,
      "componentType": 5126,
      "count": 84,
      "max": [
        0.2195274382829666,
        0.07231369614601135,
        0.0
      ],
      "min": [
        0.15906476974487305,
        0.02481520175933838,
        0.0
      ],
      "type": "VEC3"
    },
    {
      "bufferView": 2,
      "byteOffset": 397872,
      "componentType": 5126,
      "count": 84,
      "max": [
        0.0,
        0.0,
        1.0
      ],
      "min": [
        0.0,
        0.0,
        1.0
      ],
      "type": "VEC3"
    },
    {
      "bufferView": 1,
      "byteOffset": 132288,
      "componentType": 5126,
      "count": 84,
      "max": [
        1.0,
        0.0
      ],
      "min": [
        0.0,
        0.0
      ],
      "type": "VEC2"
    },
    {
      "bufferView": 0,
      "byteOffset": 126960,
      "componentType": 5125,
      "count": 246,
      "type": "SCALAR"
    },
    {
      "bufferView": 2,
      "byteOffset": 398880,
      "componentType": 5126,
      "count": 61,
      "max": [
        0.22553783655166626,
        0.13176681101322174,
        0.0
      ],
      "min": [
        0.19992801547050476,
        0.10044456273317337,
        0.0
      ],
      "type": "VEC3"
    },
    {
      "bufferView": 2,
      "byteOffset": 399612,
      "componentType": 5126,
      "count": 61,
      "max": [
        0.0,
        0.0,
        1.0
      ],
      "min": [
        0.0,
        0.0,
        1.0
      ],
      "type": "VEC3"
    },
    {
      "bufferView": 1,
      "byteOffset": 132960,
      "componentType": 5126,
      "count": 61,
      "max": [
        1.0,
        0.0
      ],
      "min": [
        0.0,
        0.0
      ],
      "type": "VEC2"
    },
    {
      "bufferView": 0,
      "byteOffset": 127944,
      "componentType": 5125,
      "count": 177,
      "type": "SCALAR"
    },
    {
      "bufferView": 2,
      "byteOffset": 400344,
      "componentType": 5126,
      "count": 61,
      "max": [
        0.118475042283535,
        0.13176681101322174,
        0.0
      ],
      "min": [
        0.09286519140005112,
        0.10044456273317337,
        0.0
      ],
      "type": "VEC3"
    },
    {
      "bufferView": 2,
      "byteOffset": 401076,
      "componentType": 5126,
      "count": 61,
      "max": [
        0.0,
        0.0,
        1.0
      ],
      "min": [
        0.0,
        0.0,
        1.0
      ],
      "type": "VEC3"
    },
    {
      "bufferView": 1,
      "byteOffset": 133448,
      "componentType": 5126,
      "count": 61,
      "max": [
        1.0,
        0.0
      ],
      "min": [
        0.0,
        0.0
      ],
      "type": "VEC2"
    },
    {
      "bufferView": 0,
      "byteOffset": 128652,
      "componentType": 5125,
      "count": 177,
      "type": "SCALAR"
    },
    {
      "bufferView": 2,
      "byteOffset": 401808,
      "componentType": 5126,
      "count": 770,
      "max": [
        0.1817609965801239,
        0.16442328691482544,
        0.0010000000474974513
      ],
      "min": [
        0.16667762398719788,
        0.15719303488731384,
        -0.0010000000474974513
      ],
      "type": "VEC3"
    },
    {
      "bufferView": 2,
      "byteOffset": 411048,
      "componentType": 5126,
      "count": 770,
      "max": [
        0.9994719624519348,
        0.9999911785125732,
        1.0
      ],
      "min": [
        -0.9977070689201355,
        -0.9999668598175049,
        -1.0
      ],
      "type": "VEC3"
    },
    {
      "bufferView": 1,
      "byteOffset": 133936,
      "componentType": 5126,
      "count": 770,
      "max": [
        1.0,
        1.0
      ],
      "min": [
        0.0,
        0.0
      ],
      "type": "VEC2"
    },
    {
      "bufferView": 0,
      "byteOffset": 129360,
      "componentType": 5125,
      "count": 1428,
      "type": "SCALAR"
    },
    {
      "bufferView": 2,
      "byteOffset": 420288,
      "componentType": 5126,
      "count": 680,
      "max": [
        0.16354531049728394,
        0.1663847267627716,
        0.0010000000474974513
      ],
      "min": [
        0.1550770103931427,
        0.16128237545490265,
        -0.0010000000474974513
      ],
      "type": "VEC3"
    },
    {
      "bufferView": 2,
      "byteOffset": 428448,
      "componentType": 5126,
      "count": 680,
      "max": [
        0.9071148037910461,
        0.9999545812606812,
        1.0
      ],
      "min": [
        -0.9730897545814514,
        -0.9999966025352478,
        -1.0
      ],
      "type": "VEC3"
    },
    {
      "bufferView": 1,
      "byteOffset": 140096,
      "componentType": 5126,
      "count": 680,
      "max": [
        1.0,
        1.0
      ],
      "min": [
        0.0,
        0.0
      ],
      "type": "VEC2"
    },
    {
      "bufferView": 0,
      "byteOffset": 135072,
      "componentType": 5125,
      "count": 1284,
      "type": "SCALAR"
    },
    {
      "bufferView": 2,
      "byteOffset": 436608,
      "componentType": 5126,
      "count": 524,
      "max": [
        0.22245213389396667,
        0.1387675702571869,
        0.0010000000474974513
      ],
      "min": [
        0.21371470391750336,
        0.12191088497638702,
        -0.0010000000474974513
      ],
      "type": "VEC3"
    },
    {
      "bufferView": 2,
      "byteOffset": 442896,
      "componentType": 5126,
      "count": 524,
      "max": [
        0.9999361634254456,
        0.9974571466445923,
        1.0
      ],
      "min": [
        -1.0,
        -0.9294074177742004,
        -1.0
      ],
      "type": "VEC3"
    },
    {
      "bufferView": 1,
      "byteOffset": 145536,
      "componentType": 5126,
      "count": 524,
      "max": [
        1.0,
        1.0
      ],
      "min": [
        0.0,
        0.0
      ],
      "type": "VEC2"
    },
    {
      "bufferView": 0,
      "byteOffset": 140208,
      "componentType": 5125,
      "count": 1008,
      "type": "SCALAR"
    },
    {
      "bufferView": 2,
      "byteOffset": 449184,
      "componentType": 5126,
      "count": 508,
      "max": [
        0.22743956744670868,
        0.13604514300823212,
        0.0010000000474974513
      ],
      "min": [
        0.21716994047164917,
        0.12457937002182007,
        -0.0010000000474974513
      ],
      "type": "VEC3"
    },
    {
      "bufferView": 2,
      "byteOffset": 455280,
      "componentType": 5126,
      "count": 508,
      "max": [
        0.9999147057533264,
        0.9618124961853027,
        1.0
      ],
      "min": [
        -0.9766298532485962,
        -0.9999978542327881,
        -1.0
      ],
      "type": "VEC3"
    },
    {
      "bufferView": 1,
      "byteOffset": 149728,
      "componentType": 5126,
      "count": 508,
      "max": [
        1.0,
        1.0
      ],
      "min": [
        0.0,
        0.0
      ],
      "type": "VEC2"
    },
    {
      "bufferView": 0,
      "byteOffset": 144240,
      "componentType": 5125,
      "count": 996,
      "type": "SCALAR"
    },
    {
      "bufferView": 2,
      "byteOffset": 461376,
      "componentType": 5126,
      "count": 3880,
      "max": [
        0.23308980464935303,
        0.16738338768482208,
        0.0020000007934868336
      ],
      "min": [
        0.08556631952524185,
        0.016893580555915833,
        -0.0020000007934868336
      ],
      "type": "VEC3"
    },
    {
      "bufferView": 2,
      "byteOffset": 507936,
      "componentType": 5126,
      "count": 3880,
      "max": [
        0.9998379349708557,
        0.9989725947380066,
        0.9999996423721313
      ],
      "min": [
        -0.9972642064094543,
        -0.9911644458770752,
        -0.9999996423721313
      ],
      "type": "VEC3"
    },
    {
      "bufferView": 1,
      "byteOffset": 153792,
      "componentType": 5126,
      "count": 3880,
      "max": [
        1.0,
        1.0
      ],
      "min": [
        0.0,
        0.0
      ],
      "type": "VEC2"
    },
    {
      "bufferView": 0,
      "byteOffset": 148224,
      "componentType": 5125,
      "count": 22968,
      "type": "SCALAR"
    },
    {
      "bufferView": 2,
      "byteOffset": 554496,
      "componentType": 5126,
      "count": 632,
      "max": [
        0.17997890710830688,
        0.024794191122055054,
        0.0010000000474974513
      ],
      "min": [
        0.16743728518486023,
        0.019677013158798218,
        -0.0010000000474974513
      ],
      "type": "VEC3"
    },
    {
      "bufferView": 2,
      "byteOffset": 562080,
      "componentType": 5126,
      "count": 632,
      "max": [
        0.886874258518219,
        0.9998990297317505,
        1.0
      ],
      "min": [
        -0.9977754950523376,
        -0.9999650120735168,
        -1.0
      ],
      "type": "VEC3"
    },
    {
      "bufferView": 1,
      "byteOffset": 184832,
      "componentType": 5126,
      "count": 632,
      "max": [
        1.0,
        1.0
      ],
      "min": [
        0.0,
        0.0
      ],
      "type": "VEC2"
    },
    {
      "bufferView": 0,
      "byteOffset": 240096,
      "componentType": 5125,
      "count": 1284,
      "type": "SCALAR"
    },
    {
      "bufferView": 2,
      "byteOffset": 569664,
      "componentType": 5126,
      "count": 282,
      "max": [
        0.10853097587823868,
        0.0959663987159729,
        0.0010000000474974513
      ],
      "min": [
        0.08853524178266525,
        0.07630062103271484,
        -0.0010000000474974513
      ],
      "type": "VEC3"
    },
    {
      "bufferView": 2,
      "byteOffset": 573048,
      "componentType": 5126,
      "count": 282,
      "max": [
        1.0,
        1.0,
        1.0
      ],
      "min": [
        -1.0,
        -1.0,
        -1.0
      ],
      "type": "VEC3"
    },
    {
      "bufferView": 1,
      "byteOffset": 189888,
      "componentType": 5126,
      "count": 282,
      "max": [
        1.0,
        1.0
      ],
      "min": [
        0.0,
        0.0
      ],
      "type": "VEC2"
    },
    {
      "bufferView": 0,
      "byteOffset": 245232,
      "componentType": 5125,
      "count": 564,
      "type": "SCALAR"
    },
    {
      "bufferView": 2,
      "byteOffset": 576432,
      "componentType": 5126,
      "count": 3996,
      "max": [
        0.10951241850852966,
        0.09654919803142548,
        0.0020000000949949026
      ],
      "min": [
        0.08770081400871277,
        0.07475091516971588,
        -0.0020000000949949026
      ],
      "type": "VEC3"
    },
    {
      "bufferView": 2,
      "byteOffset": 624384,
      "componentType": 5126,
      "count": 3996,
      "max": [
        1.0,
        1.0,
        1.0
      ],
      "min": [
        -1.0,
        -1.0,
        -1.0
      ],
      "type": "VEC3"
    },
    {
      "bufferView": 1,
      "byteOffset": 192144,
      "componentType": 5126,
      "count": 3996,
      "max": [
        1.0,
        1.0
      ],
      "min": [
        0.0,
        0.0
      ],
      "type": "VEC2"
    },
    {
      "bufferView": 0,
      "byteOffset": 247488,
      "componentType": 5125,
      "count": 7704,
      "type": "SCALAR"
    },
    {
      "bufferView": 2,
      "byteOffset": 672336,
      "componentType": 5126,
      "count": 4094,
      "max": [
        0.2310582399368286,
        0.09657736867666245,
        0.0020000000949949026
      ],
      "min": [
        0.209251269698143,
        0.07479188591241837,
        -0.0020000000949949026
      ],
      "type": "VEC3"
    },
    {
      "bufferView": 2,
      "byteOffset": 721464,
      "componentType": 5126,
      "count": 4094,
      "max": [
        1.0,
        1.0,
        1.0
      ],
      "min": [
        -1.0,
        -1.0,
        -1.0
      ],
      "type": "VEC3"
    },
    {
      "bufferView": 1,
      "byteOffset": 224112,
      "componentType": 5126,
      "count": 4094,
      "max": [
        1.0,
        1.0
      ],
      "min": [
        0.0,
        0.0
      ],
      "type": "VEC2"
    },
    {
      "bufferView": 0,
      "byteOffset": 278304,
      "componentType": 5125,
      "count": 7836,
      "type": "SCALAR"
    },
    {
      "bufferView": 2,
      "byteOffset": 770592,
      "componentType": 5126,
      "count": 218,
      "max": [
        0.23026734590530396,
        0.09601403772830963,
        0.0010000000474974513
      ],
      "min": [
        0.21027162671089172,
        0.07634824514389038,
        -0.0010000000474974513
      ],
      "type": "VEC3"
    },
    {
      "bufferView": 2,
      "byteOffset": 773208,
      "componentType": 5126,
      "count": 218,
      "max": [
        1.0,
        1.0,
        1.0
      ],
      "min": [
        -1.0,
        -1.0,
        -1.0
      ],
      "type": "VEC3"
    },
    {
      "bufferView": 1,
      "byteOffset": 256864,
      "componentType": 5126,
      "count": 218,
      "max": [
        1.0,
        1.0
      ],
      "min": [
        0.0,
        0.0
      ],
      "type": "VEC2"
    },
    {
      "bufferView": 0,
      "byteOffset": 309648,
      "componentType": 5125,
      "count": 564,
      "type": "SCALAR"
    }
  ],
  "asset": {
    "extras": {
      "author": "erfan-filofa (https://sketchfab.com/erfanfilofa)",
      "license": "CC-BY-4.0 (http://creativecommons.org/licenses/by/4.0/)",
      "source": "https://sketchfab.com/3d-models/logo-manchester-461d0036948c43ca8197bad8dbfb868a",
      "title": "Logo manchester"
    },
    "generator": "Sketchfab-16.34.0",
    "version": "2.0"
  },
  "bufferViews": [
    {
      "buffer": 0,
      "byteLength": 311904,
      "name": "floatBufferViews",
      "target": 34963
    },
    {
      "buffer": 0,
      "byteLength": 258608,
      "byteOffset": 311904,
      "byteStride": 8,
      "name": "floatBufferViews",
      "target": 34962
    },
    {
      "buffer": 0,
      "byteLength": 775824,
      "byteOffset": 570512,
      "byteStride": 12,
      "name": "floatBufferViews",
      "target": 34962
    }
  ],
  "buffers": [
    {
      "byteLength": 1346336,
      "uri": "scene.bin"
    }
  ],
  "materials": [
    {
      "doubleSided": true,
      "name": "Curve.020__0",
      "pbrMetallicRoughness": {
        "metallicFactor": 0.0,
        "roughnessFactor": 0.6
      }
    },
    {
      "doubleSided": true,
      "name": "Material.002",
      "pbrMetallicRoughness": {
        "baseColorFactor": [
          0.8,
          0.566085,
          0.0,
          1.0
        ],
        "metallicFactor": 0.0,
        "roughnessFactor": 0.8351022246532458
      }
    },
    {
      "doubleSided": true,
      "name": "SVGMat.002",
      "pbrMetallicRoughness": {
        "baseColorFactor": [
          0.701102,
          0.000607054,
          0.00439144,
          1.0
        ],
        "metallicFactor": 0.0,
        "roughnessFactor": 0.9543785382475223
      }
    },
    {
      "doubleSided": true,
      "name": "SVGMat",
      "pbrMetallicRoughness": {
        "baseColorFactor": [
          0.0,
          0.0,
          0.0,
          1.0
        ],
        "metallicFactor": 0.0,
        "roughnessFactor": 0.0
      }
    }
  ],
  "meshes": [
    {
      "name": "Curve.002_Material.002_0",
      "primitives": [
        {
          "attributes": {
            "NORMAL": 1,
            "POSITION": 0,
            "TEXCOORD_0": 2
          },
          "indices": 3,
          "material": 1,
          "mode": 4
        }
      ]
    },
    {
      "name": "Curve.003_Material.002_0",
      "primitives": [
        {
          "attributes": {
            "NORMAL": 5,
            "POSITION": 4,
            "TEXCOORD_0": 6
          },
          "indices": 7,
          "material": 1,
          "mode": 4
        }
      ]
    },
    {
      "name": "Curve.005_SVGMat.002_0",
      "primitives": [
        {
          "attributes": {
            "NORMAL": 9,
            "POSITION": 8,
            "TEXCOORD_0": 10
          },
          "indices": 11,
          "material": 2,
          "mode": 4
        }
      ]
    },
    {
      "name": "Curve.008_Material.002_0",
      "primitives": [
        {
          "attributes": {
            "NORMAL": 13,
            "POSITION": 12,
            "TEXCOORD_0": 14
          },
          "indices": 15,
          "material": 1,
          "mode": 4
        }
      ]
    },
    {
      "name": "Curve.010_SVGMat.002_0",
      "primitives": [
        {
          "attributes": {
            "NORMAL": 17,
            "POSITION": 16,
            "TEXCOORD_0": 18
          },
          "indices": 19,
          "material": 2,
          "mode": 4
        }
      ]
    },
    {
      "name": "Curve.011_SVGMat.002_0",
      "primitives": [
        {
          "attributes": {
            "NORMAL": 21,
            "POSITION": 20,
            "TEXCOORD_0": 22
          },
          "indices": 23,
          "material": 2,
          "mode": 4
        }
      ]
    },
    {
      "name": "Curve.012_Material.002_0",
      "primitives": [
        {
          "attributes": {
            "NORMAL": 25,
            "POSITION": 24,
            "TEXCOORD_0": 26
          },
          "indices": 27,
          "material": 1,
          "mode": 4
        }
      ]
    },
    {
      "name": "Curve.013_Material.002_0",
      "primitives": [
        {
          "attributes": {
            "NORMAL": 29,
            "POSITION": 28,
            "TEXCOORD_0": 30
          },
          "indices": 31,
          "material": 1,
          "mode": 4
        }
      ]
    },
    {
      "name": "Curve.016_SVGMat.002_0",
      "primitives": [
        {
          "attributes": {
            "NORMAL": 33,
            "POSITION": 32,
            "TEXCOORD_0": 34
          },
          "indices": 35,
          "material": 2,
          "mode": 4
        }
      ]
    },
    {
      "name": "Curve.017_Material.002_0",
      "primitives": [
        {
          "attributes": {
            "NORMAL": 37,
            "POSITION": 36,
            "TEXCOORD_0": 38
          },
          "indices": 39,
          "material": 1,
          "mode": 4
        }
      ]
    },
    {
      "name": "Curve.018_Material.002_0",
      "primitives": [
        {
          "attributes": {
            "NORMAL": 41,
            "POSITION": 40,
            "TEXCOORD_0": 42
          },
          "indices": 43,
          "material": 1,
          "mode": 4
        }
      ]
    },
    {
      "name": "Curve.019_Material.002_0",
      "primitives": [
        {
          "attributes": {
            "NORMAL": 45,
            "POSITION": 44,
            "TEXCOORD_0": 46
          },
          "indices": 47,
          "material": 1,
          "mode": 4
        }
      ]
    },
    {
      "name": "Curve.020__0",
      "primitives": [
        {
          "attributes": {
            "NORMAL": 49,
            "POSITION": 48,
            "TEXCOORD_0": 50
          },
          "indices": 51,
          "material": 0,
          "mode": 4
        }
      ]
    },
    {
      "name": "Curve.021__0",
      "primitives": [
        {
          "attributes": {
            "NORMAL": 53,
            "POSITION": 52,
            "TEXCOORD_0": 54
          },
          "indices": 55,
          "material": 0,
          "mode": 4
        }
      ]
    },
    {
      "name": "Curve.022__0",
      "primitives": [
        {
          "attributes": {
            "NORMAL": 57,
            "POSITION": 56,
            "TEXCOORD_0": 58
          },
          "indices": 59,
          "material": 0,
          "mode": 4
        }
      ]
    },
    {
      "name": "Curve.023__0",
      "primitives": [
        {
          "attributes": {
            "NORMAL": 61,
            "POSITION": 60,
            "TEXCOORD_0": 62
          },
          "indices": 63,
          "material": 0,
          "mode": 4
        }
      ]
    },
    {
      "name": "Curve.024_Material.002_0",
      "primitives": [
        {
          "attributes": {
            "NORMAL": 65,
            "POSITION": 64,
            "TEXCOORD_0": 66
          },
          "indices": 67,
          "material": 1,
          "mode": 4
        }
      ]
    },
    {
      "name": "Curve.025_Material.002_0",
      "primitives": [
        {
          "attributes": {
            "NORMAL": 69,
            "POSITION": 68,
            "TEXCOORD_0": 70
          },
          "indices": 71,
          "material": 1,
          "mode": 4
        }
      ]
    },
    {
      "name": "Curve.026_Material.002_0",
      "primitives": [
        {
          "attributes": {
            "NORMAL": 73,
            "POSITION": 72,
            "TEXCOORD_0": 74
          },
          "indices": 75,
          "material": 1,
          "mode": 4
        }
      ]
    },
    {
      "name": "Curve.027_Material.002_0",
      "primitives": [
        {
          "attributes": {
            "NORMAL": 77,
            "POSITION": 76,
            "TEXCOORD_0": 78
          },
          "indices": 79,
          "material": 1,
          "mode": 4
        }
      ]
    },
    {
      "name": "Curve.028_SVGMat_0",
      "primitives": [
        {
          "attributes": {
            "NORMAL": 81,
            "POSITION": 80,
            "TEXCOORD_0": 82
          },
          "indices": 83,
          "material": 3,
          "mode": 4
        }
      ]
    },
    {
      "name": "Curve.029_Material.002_0",
      "primitives": [
        {
          "attributes": {
            "NORMAL": 85,
            "POSITION": 84,
            "TEXCOORD_0": 86
          },
          "indices": 87,
          "material": 1,
          "mode": 4
        }
      ]
    },
    {
      "name": "Curve.031_Material.002_0",
      "primitives": [
        {
          "attributes": {
            "NORMAL": 89,
            "POSITION": 88,
            "TEXCOORD_0": 90
          },
          "indices": 91,
          "material": 1,
          "mode": 4
        }
      ]
    },
    {
      "name": "Curve.032_SVGMat.002_0",
      "primitives": [
        {
          "attributes": {
            "NORMAL": 93,
            "POSITION": 92,
            "TEXCOORD_0": 94
          },
          "indices": 95,
          "material": 2,
          "mode": 4
        }
      ]
    },
    {
      "name": "Curve.034_SVGMat.002_0",
      "primitives": [
        {
          "attributes": {
            "NORMAL": 97,
            "POSITION": 96,
            "TEXCOORD_0": 98
          },
          "indices": 99,
          "material": 2,
          "mode": 4
        }
      ]
    },
    {
      "name": "Curve.035_Material.002_0",
      "primitives": [
        {
          "attributes": {
            "NORMAL": 101,
            "POSITION": 100,
            "TEXCOORD_0": 102
          },
          "indices": 103,
          "material": 1,
          "mode": 4
        }
      ]
    }
  ],
  "nodes": [
    {
      "children": [
        1
      ],
      "matrix": [
        1.0,
        0.0,
        0.0,
        0.0,
        0.0,
        2.220446049250313e-16,
        -1.0,
        0.0,
        0.0,
        1.0,
        2.220446049250313e-16,
        0.0,
        0.0,
        0.0,
        0.0,
        1.0
      ],
      "name": "Sketchfab_model"
    },
    {
      "children": [
        2
      ],
      "matrix": [
        0.009999999776482582,
        0.0,
        0.0,
        0.0,
        0.0,
        0.0,
        0.009999999776482582,
        0.0,
        0.0,
        -0.009999999776482582,
        0.0,
        0.0,
        0.0,
        0.0,
        0.0,
        1.0
      ],
      "name": "Logo machester.fbx"
    },
    {
      "children": [
        3,
        5,
        7,
        9,
        11,
        13,
        15,
        17,
        19,
        21,
        23,
        25,
        27,
        29,
        31,
        33,
        35,
        37,
        39,
        41,
        43,
        45,
        47,
        49,
        51,
        53
      ],
      "name": "RootNode"
    },
    {
      "children": [
        4
      ],
      "matrix": [
        1264.3787841796875,
        0.0,
        0.0,
        0.0,
        0.0,
        1264.3742156710202,
        3.3989160032629195,
        0.0,
        0.0,
        -3.3989160032629195,
        1264.3742156710202,
        0.0,
        1.4901161193847656e-06,
        0.0,
        0.0,
        1.0
      ],
      "name": "Curve.002"
    },
    {
      "mesh": 0,
      "name": "Curve.002_Material.002_0"
    },
    {
      "children": [
        6
      ],
      "matrix": [
        1264.3787841796875,
        0.0,
        0.0,
        0.0,
        0.0,
        1264.3742156710202,
        3.3989160032629195,
        0.0,
        0.0,
        -3.3989160032629195,
        1264.3742156710202,
        0.0,
        1.4901161193847656e-06,
        0.0,
        0.0,
        1.0
      ],
      "name": "Curve.003"
    },
    {
      "mesh": 1,
      "name": "Curve.003_Material.002_0"
    },
    {
      "children": [
        8
      ],
      "matrix": [
        100.0,
        0.0,
        0.0,
        0.0,
        0.0,
        99.99963104620116,
        0.2688210274373135,
        0.0,
        0.0,
        -0.2688210274373135,
        99.99963104620116,
        0.0,
        1.4901161193847656e-06,
        0.0,
        0.0,
        1.0
      ],
      "name": "Curve.005"
    },
    {
      "mesh": 2,
      "name": "Curve.005_SVGMat.002_0"
    },
    {
      "children": [
        10
      ],
      "matrix": [
        1264.3787841796875,
        0.0,
        0.0,
        0.0,
        0.0,
        1264.3742156710202,
        3.3989160032629195,
        0.0,
        0.0,
        -3.3989160032629195,
        1264.3742156710202,
        0.0,
        1.4901161193847656e-06,
        0.0,
        0.0,
        1.0
      ],
      "name": "Curve.008"
    },
    {
      "mesh": 3,
      "name": "Curve.008_Material.002_0"
    },
    {
      "children": [
        12
      ],
      "matrix": [
        1264.3787841796875,
        0.0,
        0.0,
        0.0,
        0.0,
        1264.3742156710202,
        3.3989160032629195,
        0.0,
        0.0,
        -3.3989160032629195,
        1264.3742156710202,
        0.0,
        1.4901161193847656e-06,
        0.0,
        0.0,
        1.0
      ],
      "name": "Curve.010"
    },
    {
      "mesh": 4,
      "name": "Curve.010_SVGMat.002_0"
    },
    {
      "children": [
        14
      ],
      "matrix": [
        1264.3787841796875,
        0.0,
        0.0,
        0.0,
        0.0,
        1264.3742156710202,
        3.3989160032629195,
        0.0,
        0.0,
        -3.3989160032629195,
        1264.3742156710202,
        0.0,
        1.4901161193847656e-06,
        0.0,
        0.0,
        1.0
      ],
      "name": "Curve.011"
    },
    {
      "mesh": 5,
      "name": "Curve.011_SVGMat.002_0"
    },
    {
      "children": [
        16
      ],
      "matrix": [
        1264.3787841796875,
        0.0,
        0.0,
        0.0,
        0.0,
        1264.3742156710202,
        3.3989160032629195,
        0.0,
        0.0,
        -3.3989160032629195,
        1264.3742156710202,
        0.0,
        1.4901161193847656e-06,
        0.0,
        0.0,
        1.0
      ],
      "name": "Curve.012"
    },
    {
      "mesh": 6,
      "name": "Curve.012_Material.002_0"
    },
    {
      "children": [
        18
      ],
      "matrix": [
        1264.3787841796875,
        0.0,
        0.0,
        0.0,
        0.0,
        1264.3742156710202,
        3.3989160032629195,
        0.0,
        0.0,
        -3.3989160032629195,
        1264.3742156710202,
        0.0,
        1.4901161193847656e-06,
        0.0,
        0.0,
        1.0
      ],
      "name": "Curve.013"
    },
    {
      "mesh": 7,
      "name": "Curve.013_Material.002_0"
    },
    {
      "children": [
        20
      ],
      "matrix": [
        1264.3787841796875,
        0.0,
        0.0,
        0.0,
        0.0,
        1264.3742156710202,
        3.3989160032629195,
        0.0,
        0.0,
        -3.3989160032629195,
        1264.3742156710202,
        0.0,
        1.4901161193847656e-06,
        0.0,
        0.0,
        1.0
      ],
      "name": "Curve.016"
    },
    {
      "mesh": 8,
      "name": "Curve.016_SVGMat.002_0"
    },
    {
      "children": [
        22
      ],
      "matrix": [
        1264.3787841796875,
        0.0,
        0.0,
        0.0,
        0.0,
        1264.3742156710202,
        3.3989160032629195,
        0.0,
        0.0,
        -3.3989160032629195,
        1264.3742156710202,
        0.0,
        1.4901161193847656e-06,
        0.0,
        0.0,
        1.0
      ],
      "name": "Curve.017"
    },
    {
      "mesh": 9,
      "name": "Curve.017_Material.002_0"
    },
    {
      "children": [
        24
      ],
      "matrix": [
        1264.3787841796875,
        0.0,
        0.0,
        0.0,
        0.0,
        1264.3742156710202,
        3.3989160032629195,
        0.0,
        0.0,
        -3.3989160032629195,
        1264.3742156710202,
        0.0,
        1.4901161193847656e-06,
        0.0,
        0.0,
        1.0
      ],
      "name": "Curve.018"
    },
    {
      "mesh": 10,
      "name": "Curve.018_Material.002_0"
    },
    {
      "children": [
        26
      ],
      "matrix": [
        1264.3787841796875,
        0.0,
        0.0,
        0.0,
        0.0,
        1264.3742156710202,
        3.3989160032629195,
        0.0,
        0.0,
        -3.3989160032629195,
        1264.3742156710202,
        0.0,
        1.4901161193847656e-06,
        0.0,
        0.0,
        1.0
      ],
      "name": "Curve.019"
    },
    {
      "mesh": 11,
      "name": "Curve.019_Material.002_0"
    },
    {
      "children": [
        28
      ],
      "matrix": [
        1264.3787841796875,
        0.0,
        0.0,
        0.0,
        0.0,
        1264.3742156710202,
        3.3989160032629195,
        0.0,
        0.0,
        -3.3989160032629195,
        1264.3742156710202,
        0.0,
        1.4901161193847656e-06,
        0.0,
        0.0,
        1.0
      ],
      "name": "Curve.020"
    },
    {
      "mesh": 12,
      "name": "Curve.020__0"
    },
    {
      "children": [
        30
      ],
      "matrix": [
        1264.3787841796875,
        0.0,
        0.0,
        0.0,
        0.0,
        1264.3742156710202,
        3.3989160032629195,
        0.0,
        0.0,
        -3.3989160032629195,
        1264.3742156710202,
        0.0,
        1.4901161193847656e-06,
        0.0,
        0.0,
        1.0
      ],
      "name": "Curve.021"
    },
    {
      "mesh": 13,
      "name": "Curve.021__0"
    },
    {
      "children": [
        32
      ],
      "matrix": [
        1264.3787841796875,
        0.0,
        0.0,
        0.0,
        0.0,
        1264.3742156710202,
        3.3989160032629195,
        0.0,
        0.0,
        -3.3989160032629195,
        1264.3742156710202,
        0.0,
        1.4901161193847656e-06,
        0.0,
        0.0,
        1.0
      ],
      "name": "Curve.022"
    },
    {
      "mesh": 14,
      "name": "Curve.022__0"
    },
    {
      "children": [
        34
      ],
      "matrix": [
        1264.3787841796875,
        0.0,
        0.0,
        0.0,
        0.0,
        1264.3742156710202,
        3.3989160032629195,
        0.0,
        0.0,
        -3.3989160032629195,
        1264.3742156710202,
        0.0,
        1.4901161193847656e-06,
        0.0,
        0.0,
        1.0
      ],
      "name": "Curve.023"
    },
    {
      "mesh": 15,
      "name": "Curve.023__0"
    },
    {
      "children": [
        36
      ],
      "matrix": [
        1264.3787841796875,
        0.0,
        0.0,
        0.0,
        0.0,
        1264.3742156710202,
        3.3989160032629195,
        0.0,
        0.0,
        -3.3989160032629195,
        1264.3742156710202,
        0.0,
        1.4901161193847656e-06,
        0.0,
        0.0,
        1.0
      ],
      "name": "Curve.024"
    },
    {
      "mesh": 16,
      "name": "Curve.024_Material.002_0"
    },
    {
      "children": [
        38
      ],
      "matrix": [
        1264.3787841796875,
        0.0,
        0.0,
        0.0,
        0.0,
        1264.3742156710202,
        3.3989160032629195,
        0.0,
        0.0,
        -3.3989160032629195,
        1264.3742156710202,
        0.0,
        1.4901161193847656e-06,
        0.0,
        0.0,
        1.0
      ],
      "name": "Curve.025"
    },
    {
      "mesh": 17,
      "name": "Curve.025_Material.002_0"
    },
    {
      "children": [
        40
      ],
      "matrix": [
        1264.3787841796875,
        0.0,
        0.0,
        0.0,
        0.0,
        1264.3742156710202,
        3.3989160032629195,
        0.0,
        0.0,
        -3.3989160032629195,
        1264.3742156710202,
        0.0,
        1.4901161193847656e-06,
        0.0,
        0.0,
        1.0
      ],
      "name": "Curve.026"
    },
    {
      "mesh": 18,
      "name": "Curve.026_Material.002_0"
    },
    {
      "children": [
        42
      ],
      "matrix": [
        1264.3787841796875,
        0.0,
        0.0,
        0.0,
        0.0,
        1264.3742156710202,
        3.3989160032629195,
        0.0,
        0.0,
        -3.3989160032629195,
        1264.3742156710202,
        0.0,
        1.4901161193847656e-06,
        0.0,
        0.0,
        1.0
      ],
      "name": "Curve.027"
    },
    {
      "mesh": 19,
      "name": "Curve.027_Material.002_0"
    },
    {
      "children": [
        44
      ],
      "matrix": [
        -1264.3787841796875,
        -0.0,
        -0.0,
        -0.0,
        -0.0,
        1264.3742153073604,
        3.3990512796811503,
        -0.0,
        -0.0,
        -3.3990512796811503,
        1264.3742153073604,
        -0.0,
        402.6564636230469,
        0.0,
        0.0,
        1.0
      ],
      "name": "Curve.028"
    },
    {
      "mesh": 20,
      "name": "Curve.028_SVGMat_0"
    },
    {
      "children": [
        46
      ],
      "matrix": [
        1264.3787841796875,
        0.0,
        0.0,
        0.0,
        0.0,
        1264.3742156710202,
        3.3989160032629195,
        0.0,
        0.0,
        -3.3989160032629195,
        1264.3742156710202,
        0.0,
        1.4901161193847656e-06,
        0.0,
        0.0,
        1.0
      ],
      "name": "Curve.029"
    },
    {
      "mesh": 21,
      "name": "Curve.029_Material.002_0"
    },
    {
      "children": [
        48
      ],
      "matrix": [
        1264.3787841796875,
        0.0,
        0.0,
        0.0,
        0.0,
        1264.3742156710202,
        3.3989160032629195,
        0.0,
        0.0,
        -3.3989160032629195,
        1264.3742156710202,
        0.0,
        1.4901161193847656e-06,
        0.0,
        0.0,
        1.0
      ],
      "name": "Curve.031"
    },
    {
      "mesh": 22,
      "name": "Curve.031_Material.002_0"
    },
    {
      "children": [
        50
      ],
      "matrix": [
        1264.3787841796875,
        0.0,
        0.0,
        0.0,
        0.0,
        1264.3742156710202,
        3.3989160032629195,
        0.0,
        0.0,
        -3.3989160032629195,
        1264.3742156710202,
        0.0,
        1.4901161193847656e-06,
        0.0,
        0.0,
        1.0
      ],
      "name": "Curve.032"
    },
    {
      "mesh": 23,
      "name": "Curve.032_SVGMat.002_0"
    },
    {
      "children": [
        52
      ],
      "matrix": [
        1264.3787841796875,
        0.0,
        0.0,
        0.0,
        0.0,
        1264.3742156710202,
        3.3989160032629195,
        0.0,
        0.0,
        -3.3989160032629195,
        1264.3742156710202,
        0.0,
        1.4901161193847656e-06,
        0.0,
        0.0,
        1.0
      ],
      "name": "Curve.034"
    },
    {
      "mesh": 24,
      "name": "Curve.034_SVGMat.002_0"
    },
    {
      "children": [
        54
      ],
      "matrix": [
        1264.3787841796875,
        0.0,
        0.0,
        0.0,
        0.0,
        1264.3742156710202,
        3.3989160032629195,
        0.0,
        0.0,
        -3.3989160032629195,
        1264.3742156710202,
        0.0,
        1.4901161193847656e-06,
        0.0,
        0.0,
        1.0
      ],
      "name": "Curve.035"
    },
    {
      "mesh": 25,
      "name": "Curve.035_Material.002_0"
    }
  ],
  "scene": 0,
  "scenes": [
    {
      "name": "Sketchfab_Scene",
      "nodes": [
        0
      ]
    }
  ]
}
