{
	"asset":{
		"generator":"Khronos glTF Blender I/O v4.4.56",
		"version":"2.0"
	},
	"scene":0,
	"scenes":[
		{
			"name":"Scene",
			"nodes":[
				0,
				1,
				2,
				10,
				12,
				13
			]
		}
	],
	"nodes":[
		{
			"mesh":0,
			"name":"temp",
			"rotation":[
				0.48110926151275635,
				0.5182026624679565,
				-0.518202543258667,
				0.48110929131507874
			],
			"scale":[
				28.3841495513916,
				28.3841495513916,
				28.38414764404297
			],
			"translation":[
				0.6620559692382812,
				33.580867767333984,
				-2.989046096801758
			]
		},
		{
			"name":"B\u00e9zierCircle",
			"rotation":[
				0,
				0,
				-0.7071068286895752,
				0.7071068286895752
			],
			"scale":[
				2.6158580780029297,
				2.6158580780029297,
				2.6158580780029297
			],
			"translation":[
				-0.4387739896774292,
				4.424376487731934,
				-0.6164894700050354
			]
		},
		{
			"mesh":1,
			"name":"Text",
			"rotation":[
				-0.02032630704343319,
				0.02032630704343319,
				-0.7068145871162415,
				0.7068145275115967
			],
			"scale":[
				7.3380279541015625,
				7.338027477264404,
				7.338027477264404
			],
			"translation":[
				0.4905414283275604,
				38.988983154296875,
				-0.6878819465637207
			]
		},
		{
			"name":"Circle.001",
			"rotation":[
				-0.70710688829422,
				0,
				0,
				0.7071066498756409
			],
			"scale":[
				100,
				99.99998474121094,
				99.99998474121094
			]
		},
		{
			"mesh":2,
			"name":"Plane_Hologram-lights_0"
		},
		{
			"children":[
				4
			],
			"name":"Plane.003",
			"rotation":[
				-0.70710688829422,
				0,
				0,
				0.7071066498756409
			],
			"scale":[
				100,
				99.99998474121094,
				99.99998474121094
			]
		},
		{
			"name":"Suzanne",
			"rotation":[
				-0.70710688829422,
				0,
				0,
				0.7071066498756409
			],
			"scale":[
				100,
				99.99998474121094,
				99.99998474121094
			],
			"translation":[
				0,
				344.1619873046875,
				-7.185410499572754
			]
		},
		{
			"children":[
				3,
				5,
				6
			],
			"name":"RootNode"
		},
		{
			"children":[
				7
			],
			"name":"Object_2"
		},
		{
			"children":[
				8
			],
			"name":"c3ca773633b94848aca387339e4af0dc.fbx",
			"rotation":[
				0.70710688829422,
				0,
				0,
				0.7071066498756409
			],
			"scale":[
				1.0846728086471558,
				1.0846729278564453,
				1.0846729278564453
			],
			"translation":[
				-14.556790351867676,
				217.28221130371094,
				-116.10204315185547
			]
		},
		{
			"children":[
				9
			],
			"name":"Sketchfab_model",
			"rotation":[
				-0.70710688829422,
				0,
				0,
				0.7071066498756409
			],
			"scale":[
				0.17796756327152252,
				0.17796757817268372,
				0.17796757817268372
			],
			"translation":[
				-0.1177208423614502,
				19.180877685546875,
				35.99739074707031
			]
		},
		{
			"name":"Object_12"
		},
		{
			"children":[
				11
			],
			"name":"Object_11",
			"rotation":[
				0.70710688829422,
				0,
				0,
				0.7071066498756409
			],
			"scale":[
				5.192973613739014,
				5.192973613739014,
				5.192973613739014
			],
			"translation":[
				0.19291278719902039,
				15.681995391845703,
				-2.4058427810668945
			]
		},
		{
			"name":"Object_14",
			"scale":[
				5.192973613739014,
				5.192973613739014,
				5.192973613739014
			],
			"translation":[
				0.19291278719902039,
				15.681995391845703,
				-2.4058427810668945
			]
		}
	],
	"animations":[
		{
			"channels":[
				{
					"sampler":0,
					"target":{
						"node":5,
						"path":"translation"
					}
				},
				{
					"sampler":1,
					"target":{
						"node":5,
						"path":"rotation"
					}
				},
				{
					"sampler":2,
					"target":{
						"node":5,
						"path":"scale"
					}
				}
			],
			"name":"Scene",
			"samplers":[
				{
					"input":12,
					"interpolation":"STEP",
					"output":13
				},
				{
					"input":14,
					"interpolation":"LINEAR",
					"output":15
				},
				{
					"input":12,
					"interpolation":"LINEAR",
					"output":16
				}
			]
		},
		{
			"channels":[
				{
					"sampler":0,
					"target":{
						"node":4,
						"path":"translation"
					}
				},
				{
					"sampler":1,
					"target":{
						"node":4,
						"path":"rotation"
					}
				},
				{
					"sampler":2,
					"target":{
						"node":4,
						"path":"scale"
					}
				}
			],
			"name":"Action.001",
			"samplers":[
				{
					"input":17,
					"interpolation":"LINEAR",
					"output":18
				},
				{
					"input":17,
					"interpolation":"LINEAR",
					"output":19
				},
				{
					"input":17,
					"interpolation":"LINEAR",
					"output":20
				}
			]
		}
	],
	"materials":[
		{
			"doubleSided":true,
			"name":"Material.001",
			"pbrMetallicRoughness":{
				"baseColorTexture":{
					"index":0
				},
				"metallicFactor":0,
				"roughnessFactor":0.5
			}
		},
		{
			"doubleSided":true,
			"name":"Material.003",
			"pbrMetallicRoughness":{
				"baseColorFactor":[
					0.8001810312271118,
					0.261473685503006,
					0,
					1
				],
				"metallicFactor":0,
				"roughnessFactor":0.5
			}
		},
		{
			"alphaMode":"BLEND",
			"doubleSided":true,
			"emissiveFactor":[
				1,
				1,
				1
			],
			"emissiveTexture":{
				"index":1
			},
			"name":"Hologram-lights.001",
			"pbrMetallicRoughness":{
				"baseColorFactor":[
					1,
					1,
					1,
					0.2199999988079071
				],
				"baseColorTexture":{
					"index":2
				},
				"metallicFactor":0
			}
		}
	],
	"meshes":[
		{
			"name":"temp",
			"primitives":[
				{
					"attributes":{
						"POSITION":0,
						"NORMAL":1,
						"TEXCOORD_0":2
					},
					"indices":3,
					"material":0
				}
			]
		},
		{
			"name":"Text",
			"primitives":[
				{
					"attributes":{
						"POSITION":4,
						"NORMAL":5,
						"TEXCOORD_0":6
					},
					"indices":7,
					"material":1
				}
			]
		},
		{
			"name":"Plane_Hologram-lights_0",
			"primitives":[
				{
					"attributes":{
						"POSITION":8,
						"NORMAL":9,
						"TEXCOORD_0":10
					},
					"indices":11,
					"material":2
				}
			]
		}
	],
	"textures":[
		{
			"sampler":0,
			"source":0
		},
		{
			"sampler":0,
			"source":1
		},
		{
			"sampler":0,
			"source":2
		}
	],
	"images":[
		{
			"mimeType":"image/png",
			"name":"texture_0",
			"uri":"texture_0.png"
		},
		{
			"mimeType":"image/jpeg",
			"name":"Hologram-lights_emissive",
			"uri":"Hologram-lights_emissive.jpg"
		},
		{
			"mimeType":"image/png",
			"name":"Hologram-lights_baseColor",
			"uri":"Hologram-lights_baseColor.png"
		}
	],
	"accessors":[
		{
			"bufferView":0,
			"componentType":5126,
			"count":29481,
			"max":[
				0.5572429895401001,
				0.22695699334144592,
				1.0003600120544434
			],
			"min":[
				-0.5611990094184875,
				-0.2236279994249344,
				-1
			],
			"type":"VEC3"
		},
		{
			"bufferView":1,
			"componentType":5126,
			"count":29481,
			"type":"VEC3"
		},
		{
			"bufferView":2,
			"componentType":5126,
			"count":29481,
			"type":"VEC2"
		},
		{
			"bufferView":3,
			"componentType":5123,
			"count":29997,
			"type":"SCALAR"
		},
		{
			"bufferView":4,
			"componentType":5126,
			"count":4672,
			"max":[
				-0.09563031047582626,
				0.04999999701976776,
				4.061668872833252
			],
			"min":[
				-4.066344261169434,
				-0.04999999701976776,
				-4.038575649261475
			],
			"type":"VEC3"
		},
		{
			"bufferView":5,
			"componentType":5126,
			"count":4672,
			"type":"VEC3"
		},
		{
			"bufferView":6,
			"componentType":5126,
			"count":4672,
			"type":"VEC2"
		},
		{
			"bufferView":7,
			"componentType":5123,
			"count":13704,
			"type":"SCALAR"
		},
		{
			"bufferView":8,
			"componentType":5126,
			"count":16,
			"max":[
				2.2867839336395264,
				2.1320817470550537,
				4.195375442504883
			],
			"min":[
				-2.2867839336395264,
				-2.1320817470550537,
				0.10703510791063309
			],
			"type":"VEC3"
		},
		{
			"bufferView":9,
			"componentType":5126,
			"count":16,
			"type":"VEC3"
		},
		{
			"bufferView":10,
			"componentType":5126,
			"count":16,
			"type":"VEC2"
		},
		{
			"bufferView":11,
			"componentType":5123,
			"count":24,
			"type":"SCALAR"
		},
		{
			"bufferView":12,
			"componentType":5126,
			"count":2,
			"max":[
				14.666666666666666
			],
			"min":[
				0.041666666666666664
			],
			"type":"SCALAR"
		},
		{
			"bufferView":13,
			"componentType":5126,
			"count":2,
			"type":"VEC3"
		},
		{
			"bufferView":14,
			"componentType":5126,
			"count":352,
			"max":[
				14.666666666666666
			],
			"min":[
				0.041666666666666664
			],
			"type":"SCALAR"
		},
		{
			"bufferView":15,
			"componentType":5126,
			"count":352,
			"type":"VEC4"
		},
		{
			"bufferView":16,
			"componentType":5126,
			"count":2,
			"type":"VEC3"
		},
		{
			"bufferView":17,
			"componentType":5126,
			"count":2,
			"max":[
				25
			],
			"min":[
				0
			],
			"type":"SCALAR"
		},
		{
			"bufferView":18,
			"componentType":5126,
			"count":2,
			"type":"VEC3"
		},
		{
			"bufferView":19,
			"componentType":5126,
			"count":2,
			"type":"VEC4"
		},
		{
			"bufferView":20,
			"componentType":5126,
			"count":2,
			"type":"VEC3"
		}
	],
	"bufferViews":[
		{
			"buffer":0,
			"byteLength":353772,
			"byteOffset":0,
			"target":34962
		},
		{
			"buffer":0,
			"byteLength":353772,
			"byteOffset":353772,
			"target":34962
		},
		{
			"buffer":0,
			"byteLength":235848,
			"byteOffset":707544,
			"target":34962
		},
		{
			"buffer":0,
			"byteLength":59994,
			"byteOffset":943392,
			"target":34963
		},
		{
			"buffer":0,
			"byteLength":56064,
			"byteOffset":1003388,
			"target":34962
		},
		{
			"buffer":0,
			"byteLength":56064,
			"byteOffset":1059452,
			"target":34962
		},
		{
			"buffer":0,
			"byteLength":37376,
			"byteOffset":1115516,
			"target":34962
		},
		{
			"buffer":0,
			"byteLength":27408,
			"byteOffset":1152892,
			"target":34963
		},
		{
			"buffer":0,
			"byteLength":192,
			"byteOffset":1180300,
			"target":34962
		},
		{
			"buffer":0,
			"byteLength":192,
			"byteOffset":1180492,
			"target":34962
		},
		{
			"buffer":0,
			"byteLength":128,
			"byteOffset":1180684,
			"target":34962
		},
		{
			"buffer":0,
			"byteLength":48,
			"byteOffset":1180812,
			"target":34963
		},
		{
			"buffer":0,
			"byteLength":8,
			"byteOffset":1180860
		},
		{
			"buffer":0,
			"byteLength":24,
			"byteOffset":1180868
		},
		{
			"buffer":0,
			"byteLength":1408,
			"byteOffset":1180892
		},
		{
			"buffer":0,
			"byteLength":5632,
			"byteOffset":1182300
		},
		{
			"buffer":0,
			"byteLength":24,
			"byteOffset":1187932
		},
		{
			"buffer":0,
			"byteLength":8,
			"byteOffset":1187956
		},
		{
			"buffer":0,
			"byteLength":24,
			"byteOffset":1187964
		},
		{
			"buffer":0,
			"byteLength":32,
			"byteOffset":1187988
		},
		{
			"buffer":0,
			"byteLength":24,
			"byteOffset":1188020
		}
	],
	"samplers":[
		{
			"magFilter":9729,
			"minFilter":9987
		}
	],
	"buffers":[
		{
			"byteLength":1188044,
			"uri":"kseychain%20ub.bin"
		}
	]
}
